<?xml version="1.0" standalone="no"?>
<!DOCTYPE svg PUBLIC "-//W3C//DTD SVG 20010904//EN"
 "http://www.w3.org/TR/2001/REC-SVG-20010904/DTD/svg10.dtd">
<svg version="1.0" xmlns="http://www.w3.org/2000/svg"
 width="1105.000000pt" height="258.000000pt" viewBox="0 0 1105.000000 258.000000"
 preserveAspectRatio="xMidYMid meet">
<metadata>
Created by potrace 1.16, written by Peter Selinger 2001-2019
</metadata>
<g transform="translate(0.000000,258.000000) scale(0.100000,-0.100000)"
fill="#000000" stroke="none">
<path d="M197 2566 c-83 -30 -138 -82 -177 -168 -18 -41 -20 -67 -20 -483 l0
-439 55 54 54 54 3 395 c3 431 3 432 61 475 28 21 34 21 805 23 l777 2 -370
-95 c-362 -93 -455 -120 -370 -109 22 2 106 10 186 17 178 14 267 1 393 -60
152 -73 263 -175 368 -337 193 -297 195 -560 9 -840 -52 -78 -352 -385 -859
-879 -95 -93 -170 -171 -168 -173 2 -2 118 32 258 75 l253 80 580 5 c661 5
651 4 736 84 90 84 84 2 84 1138 l0 1000 -30 54 c-16 29 -45 66 -64 82 -76 62
-8 59 -1325 59 -985 -1 -1208 -3 -1239 -14z m2455 -118 c34 -21 53 -41 72 -80
l26 -52 -1 -285 c-1 -269 -1 -282 -14 -222 -22 98 -44 158 -91 251 -110 214
-246 333 -454 397 l-75 23 245 -3 245 -2 47 -27z m96 -1688 c-3 -446 -1 -430
-82 -470 -41 -19 -59 -20 -458 -20 l-415 0 399 398 c264 262 415 420 444 464
48 72 87 158 101 223 11 56 14 -105 11 -595z"/>
<path d="M7923 2559 c-22 -11 -52 -37 -66 -57 -23 -35 -689 -1300 -703 -1336
-5 -14 7 -16 124 -16 l130 0 107 203 c87 166 426 847 487 977 l16 35 117 -240
c65 -132 139 -286 166 -342 l48 -103 -247 0 -248 0 -28 -87 c-16 -49 -31 -94
-33 -100 -4 -10 66 -13 330 -13 l335 0 84 -162 84 -163 146 -3 146 -3 -353
663 c-195 365 -365 677 -379 694 -56 71 -178 95 -263 53z"/>
<path d="M3300 2115 c0 -431 1 -457 18 -453 9 3 70 20 135 38 l117 33 0 310 0
309 328 -4 c270 -4 337 -8 387 -22 146 -42 217 -95 266 -200 85 -184 48 -515
-72 -635 -19 -19 -61 -47 -94 -62 -110 -52 -193 -59 -661 -59 l-424 0 0 -111
0 -110 513 3 c489 4 516 5 590 26 218 60 369 215 428 439 15 54 23 123 26 223
5 127 3 156 -16 230 -48 194 -163 347 -315 420 -146 70 -170 72 -728 77 l-498
5 0 -457z"/>
<path d="M5100 1860 l0 -710 130 0 130 0 0 710 0 710 -130 0 -130 0 0 -710z"/>
<path d="M5844 2556 c-148 -36 -184 -114 -184 -396 0 -232 25 -319 105 -365
72 -41 123 -45 595 -45 l450 0 0 -190 0 -190 -480 0 -480 0 0 115 0 115 -121
0 -121 0 5 -132 c5 -154 22 -212 73 -257 67 -59 86 -61 644 -61 571 0 584 1
651 69 57 57 64 94 64 351 l0 225 -28 58 c-34 68 -81 100 -171 116 -37 7 -230
11 -503 11 l-443 0 0 185 0 185 455 0 454 0 3 -99 3 -98 110 32 110 31 -2 71
c-4 140 -36 202 -128 248 l-60 30 -475 2 c-355 1 -488 -1 -526 -11z"/>
<path d="M9070 1860 l0 -710 130 0 130 0 0 710 0 710 -130 0 -130 0 0 -710z"/>
<path d="M9824 2556 c-80 -20 -119 -49 -151 -114 l-28 -57 0 -515 c0 -574 1
-584 64 -650 65 -69 79 -70 636 -70 555 0 569 2 636 69 49 49 60 91 66 249 l5
132 -131 0 -131 0 0 -115 0 -115 -445 0 -445 0 0 490 0 490 445 0 445 0 0
-225 c0 -124 3 -225 6 -225 5 0 129 35 237 67 18 5 19 18 15 211 -3 207 -3
207 -33 267 -27 53 -37 63 -90 90 l-60 30 -495 2 c-371 1 -508 -1 -546 -11z"/>
<path d="M1054 1931 c-136 -49 -204 -101 -496 -384 -142 -137 -258 -253 -258
-258 0 -4 160 -172 357 -373 l356 -365 221 216 c122 118 221 219 221 224 0 4
-99 110 -220 235 l-219 227 199 193 200 194 -35 30 c-65 56 -126 80 -204 79
-41 0 -92 -8 -122 -18z"/>
<path d="M0 648 c0 -351 2 -363 73 -425 65 -57 107 -63 429 -63 159 0 288 4
288 9 0 5 -24 29 -54 55 l-54 46 -240 0 -240 0 -33 27 c-55 47 -59 68 -59 331
l0 238 -48 47 c-26 26 -51 47 -55 47 -4 0 -7 -141 -7 -312z"/>
<path d="M3302 603 c3 -221 5 -241 25 -278 29 -54 69 -91 123 -112 43 -17 220
-18 3823 -21 l3777 -2 0 325 0 325 -3876 0 -3876 0 4 -237z m604 75 c10 -10
18 -34 18 -59 1 -38 -2 -43 -26 -50 -33 -9 -38 -4 -38 38 l0 33 -115 0 -115 0
0 -125 0 -125 115 0 115 0 0 45 c0 47 4 50 48 39 17 -5 22 -14 22 -40 0 -45
-18 -81 -44 -88 -11 -3 -78 -6 -147 -6 -176 0 -173 -3 -177 167 -3 140 5 172
48 185 14 4 82 6 152 5 105 -2 130 -5 144 -19z m411 -75 c28 -51 73 -131 98
-178 l47 -85 -36 0 c-33 0 -38 4 -58 45 l-22 45 -116 0 -116 0 -22 -45 c-19
-39 -26 -45 -52 -45 -16 0 -30 2 -30 4 0 3 43 84 96 181 95 174 97 176 128
173 27 -3 36 -13 83 -95z m552 87 c40 -11 51 -24 51 -61 0 -21 -6 -28 -25 -31
-21 -4 -25 -1 -25 18 0 24 0 24 -125 24 l-125 0 0 -45 0 -45 133 0 c164 0 172
-5 172 -107 0 -97 -10 -103 -184 -103 -152 0 -174 7 -186 61 -8 36 -8 35 28
44 25 7 27 5 27 -24 l0 -31 130 0 130 0 0 49 0 49 -136 4 c-160 4 -164 6 -164
103 0 64 12 90 45 98 38 9 220 7 254 -3z m463 -77 c25 -45 70 -125 98 -177
l52 -96 -35 0 c-30 0 -37 5 -58 45 l-24 45 -115 0 -116 0 -22 -45 c-19 -39
-26 -45 -53 -45 -17 0 -29 4 -27 8 2 4 45 86 97 180 92 171 94 173 125 170 27
-3 36 -13 78 -85z m825 76 c36 -13 43 -25 43 -75 0 -39 -2 -42 -30 -46 -29 -4
-30 -3 -30 34 l0 38 -120 0 -120 0 0 -125 0 -125 120 0 120 0 0 45 c0 46 8 53
44 39 24 -9 21 -89 -4 -114 -18 -18 -33 -20 -160 -20 -187 0 -180 -7 -180 178
0 75 4 142 8 149 4 7 19 16 32 22 34 13 242 14 277 0z m580 -12 c16 -15 18
-37 18 -158 0 -187 9 -179 -204 -179 -213 0 -201 -11 -201 179 0 154 2 163 45
174 11 3 88 5 172 4 131 -2 155 -4 170 -20z m373 -108 l145 -130 3 131 3 131
27 -3 27 -3 3 -177 c2 -168 1 -178 -16 -178 -16 0 -72 48 -297 251 -20 18 -20
17 -17 -117 l3 -134 -30 0 -31 0 0 180 c0 165 1 180 18 180 9 -1 82 -59 162
-131z m721 102 c27 -33 24 -60 -7 -71 -34 -13 -34 -13 -34 15 l0 25 -120 0
-120 0 0 -45 0 -45 128 0 c165 0 172 -4 172 -101 0 -106 -5 -109 -185 -109
-132 0 -147 2 -165 20 -19 19 -29 80 -12 80 4 0 17 3 30 6 19 6 22 3 22 -25
l0 -31 125 0 125 0 0 49 0 49 -130 3 c-152 5 -161 9 -167 91 -4 62 11 99 47
110 14 4 81 6 148 5 117 -2 125 -3 143 -26z m257 -129 l3 -153 122 3 122 3 3
153 3 153 27 -3 27 -3 3 -157 c3 -208 13 -198 -182 -198 -198 0 -190 -7 -194
185 -2 81 -1 153 2 161 4 10 16 14 33 12 l28 -3 3 -153z m552 3 l0 -155 130 0
130 0 0 -25 0 -25 -160 0 -160 0 0 180 0 180 30 0 30 0 0 -155z m605 125 c0
-24 -2 -25 -82 -28 l-83 -3 0 -149 0 -150 -30 0 -30 0 0 150 0 150 -80 0 c-77
0 -80 1 -80 23 0 13 3 27 7 31 4 3 90 5 192 4 l186 -3 0 -25z m452 19 c15 -5
31 -16 35 -22 4 -7 8 -76 8 -154 0 -183 11 -173 -201 -173 -210 0 -203 -6
-207 167 -3 141 5 172 48 184 40 11 286 10 317 -2z m560 -12 c14 -14 18 -34
18 -93 0 -88 -12 -104 -79 -104 l-41 -1 30 -27 c17 -15 53 -46 80 -69 l50 -43
-47 0 c-46 0 -52 3 -122 70 -69 66 -76 70 -120 70 l-46 0 0 -71 0 -70 -32 3
-33 3 -3 165 c-1 90 0 170 3 178 4 11 36 13 165 10 137 -3 162 -6 177 -21z
m437 -92 c34 -60 79 -140 99 -177 l38 -68 -36 0 c-32 0 -37 4 -57 45 l-22 45
-116 0 -116 0 -22 -45 c-19 -39 -26 -45 -52 -45 -16 0 -30 3 -30 6 0 6 93 178
162 302 27 48 33 53 61 50 27 -3 36 -14 91 -113z"/>
<path d="M6410 515 l0 -125 140 0 140 0 0 125 0 125 -140 0 -140 0 0 -125z"/>
<path d="M9400 515 l0 -125 140 0 140 0 0 125 0 125 -140 0 -140 0 0 -125z"/>
<path d="M9980 585 l0 -56 113 3 112 3 3 53 3 52 -115 0 -116 0 0 -55z"/>
</g>
</svg>
